<svg xmlns="http://www.w3.org/2000/svg" style="display:none" aria-hidden="true">
  <!-- TODO: replace with official Agorapulse SVG paths if they drift from v2 Icons library -->

  <!-- Essential -->
  <symbol id="icon-sparkles" viewBox="0 0 16 16">
    <path d="M11.984 7.2H12a.806.806 0 0 0 .8-.76c.072-1.36.68-1.64 1.584-1.64h.016c.44 0 .8-.352.8-.792a.796.796 0 0 0-.784-.808c-1.168-.024-1.616-.472-1.616-1.6 0-.44-.36-.8-.8-.8s-.8.36-.8.8c0 1.136-.456 1.584-1.608 1.6a.81.81 0 0 0-.792.808c0 .44.36.792.8.792 1.16 0 1.592.44 1.6 1.608a.803.803 0 0 0 .784.792"/>
    <path fill-rule="evenodd" d="M6.384 15.2H6.4a.806.806 0 0 0 .8-.76c.144-2.792 1.368-4.04 3.968-4.04h.032c.416.032.8-.352.8-.792a.8.8 0 0 0-.784-.808c-2.784-.064-4.024-1.296-4.016-4 0-.44-.36-.8-.8-.8s-.8.36-.8.8c-.008 2.728-1.24 3.96-4.008 4a.81.81 0 0 0-.792.808c0 .44.36.792.8.792h.008c2.736 0 3.96 1.24 3.992 4.008a.803.803 0 0 0 .784.792m.056-4.064a4.2 4.2 0 0 0-1.512-1.552l.008-.008A4.25 4.25 0 0 0 6.4 8.12c.376.616.88 1.112 1.52 1.48a4.4 4.4 0 0 0-1.48 1.536" clip-rule="evenodd"/>
  </symbol>

  <symbol id="icon-search" viewBox="0 0 16 16">
    <path fill-rule="evenodd" d="M6.4.8a5.6 5.6 0 1 0 3.354 10.085l4.08 4.08a.8.8 0 0 0 1.131-1.13l-4.08-4.081A5.6 5.6 0 0 0 6.4.8m-4 5.6a4 4 0 1 1 8 0 4 4 0 0 1-8 0" clip-rule="evenodd"/>
  </symbol>

  <symbol id="icon-plus" viewBox="0 0 16 16">
    <path d="M8.8 2.4a.8.8 0 0 0-1.6 0v4.8H2.4a.8.8 0 0 0 0 1.6h4.8v4.8a.8.8 0 1 0 1.6 0V8.8h4.8a.8.8 0 0 0 0-1.6H8.8z"/>
  </symbol>

  <symbol id="icon-close" viewBox="0 0 16 16">
    <path d="M3.434 3.434a.8.8 0 0 1 1.132 0L8 6.87l3.434-3.434a.8.8 0 1 1 1.132 1.132L9.13 8l3.434 3.434a.8.8 0 0 1-1.132 1.132L8 9.13l-3.434 3.434a.8.8 0 0 1-1.132-1.132L6.87 8 3.434 4.566a.8.8 0 0 1 0-1.132"/>
  </symbol>

  <symbol id="icon-more" viewBox="0 0 16 16">
    <path d="M4.8 8a1.6 1.6 0 1 1-3.2 0 1.6 1.6 0 0 1 3.2 0m4.8 0a1.6 1.6 0 1 1-3.2 0 1.6 1.6 0 0 1 3.2 0m3.2 1.6a1.6 1.6 0 1 0 0-3.2 1.6 1.6 0 0 0 0 3.2"/>
  </symbol>

  <symbol id="icon-upload" viewBox="0 0 16 16">
    <path d="M8 12a.8.8 0 0 1-.8-.8V3.531L5.366 5.366a.8.8 0 1 1-1.132-1.132l3.144-3.143.03-.028a.8.8 0 0 1 1.185 0l.03.028 3.143 3.143a.8.8 0 0 1-1.132 1.132L8.8 3.53v7.67a.8.8 0 0 1-.8.8"/>
    <path d="M2.4 11.2a.8.8 0 0 1 .8.8v.8a.8.8 0 0 0 .8.8h8a.8.8 0 0 0 .8-.8V12a.8.8 0 0 1 1.6 0v.8a2.4 2.4 0 0 1-2.4 2.4H4a2.4 2.4 0 0 1-2.4-2.4V12a.8.8 0 0 1 .8-.8"/>
  </symbol>

  <symbol id="icon-trash" viewBox="0 0 16 16">
    <path d="M9.6 6.4a.8.8 0 0 1 .8.8v4a.8.8 0 1 1-1.6 0v-4a.8.8 0 0 1 .8-.8m-3.2 0a.8.8 0 0 1 .8.8v4a.8.8 0 0 1-1.6 0v-4a.8.8 0 0 1 .8-.8"/>
    <path fill-rule="evenodd" d="M4.628 1.368A2.12 2.12 0 0 1 6.08.8h3.84c.536 0 1.059.199 1.452.568.395.37.628.884.628 1.432v.4h2.4a.8.8 0 0 1 0 1.6h-.8v8a2.4 2.4 0 0 1-2.4 2.4H4.8a2.4 2.4 0 0 1-2.4-2.4v-8h-.8a.8.8 0 0 1 0-1.6H4v-.4c0-.548.233-1.062.628-1.432M5.6 3.2h4.8v-.4a.36.36 0 0 0-.122-.265.53.53 0 0 0-.358-.135H6.08a.53.53 0 0 0-.358.135.36.36 0 0 0-.122.265zM4 4.8v8a.8.8 0 0 0 .8.8h6.4a.8.8 0 0 0 .8-.8v-8z" clip-rule="evenodd"/>
  </symbol>

  <symbol id="icon-pin" viewBox="0 0 16 16">
    <path d="M9.6 6.4a1.6 1.6 0 1 1-3.2 0 1.6 1.6 0 0 1 3.2 0"/>
    <path fill-rule="evenodd" d="m3.679 10.975-.002-.002-.003-.005-.012-.016a12 12 0 0 1-.192-.273 16 16 0 0 1-.466-.717c-.328-.537-.758-1.314-.889-1.975a6.03 6.03 0 0 1 2.55-6.173 5.99 5.99 0 0 1 8.879 2.699 6.03 6.03 0 0 1 .34 3.474c-.13.66-.56 1.438-.888 1.975a16 16 0 0 1-.615.93l-.043.06-.012.016-.003.005-.001.001v.001l-.011.014-.004.005-2.758 3.518a1 1 0 0 1-.064.072 2.1 2.1 0 0 1-2.97 0 1 1 0 0 1-.063-.072l-2.759-3.518zm1.877-7.832a4.39 4.39 0 0 1 6.509 1.981c.333.807.42 1.695.25 2.551-.07.35-.351.908-.684 1.453a15 15 0 0 1-.587.883c-.016.022.007-.01 0 0L8.326 13.48a.5.5 0 0 1-.651 0L4.96 10.017l-.173-.245c-.112-.163-.263-.39-.419-.644-.333-.545-.615-1.103-.684-1.453a4.43 4.43 0 0 1 1.871-4.532Z" clip-rule="evenodd"/>
  </symbol>

  <symbol id="icon-reply" viewBox="0 0 24 24">
    <path d="M1.751 10c0-4.42 3.584-8 8.005-8h4.366c4.49 0 8.129 3.64 8.129 8.13 0 2.96-1.607 5.68-4.196 7.11l-8.054 4.46v-3.69h-.067c-4.49.1-8.183-3.51-8.183-8.01zm8.005-6c-3.317 0-6.005 2.69-6.005 6 0 3.37 2.77 6.08 6.138 6.01l.351-.01h1.761v2.3l5.087-2.81c1.951-1.08 3.163-3.13 3.163-5.36 0-3.39-2.744-6.13-6.129-6.13H9.756z"/>
  </symbol>

  <symbol id="icon-repost" viewBox="0 0 16 16">
    <path d="M9.87 2.13a.67.67 0 0 1 1.14.47v1.6h.86a2.13 2.13 0 0 1 2.13 2.13v3.2h-1.33v-3.2a.8.8 0 0 0-.8-.8H11v1.6a.67.67 0 0 1-1.14.47L6.8 4.53l3.07-2.4ZM3.2 6.47a2.13 2.13 0 0 1 2.13-2.14H6.4v1.34H5.33a.8.8 0 0 0-.8.8v4.26c0 .44.36.8.8.8h6.54c.44 0 .8-.36.8-.8v-1.06H14v1.06a2.13 2.13 0 0 1-2.13 2.13H5.33A2.13 2.13 0 0 1 3.2 10.73V6.47Z"/>
  </symbol>

  <symbol id="icon-heart" viewBox="0 0 24 24">
    <path d="M16.697 5.5c-1.222-.06-2.679.51-3.89 2.16l-.805 1.09-.806-1.09C9.984 6.01 8.526 5.44 7.304 5.5c-1.243.07-2.349.78-2.91 1.91-.552 1.12-.633 2.78.479 4.82 1.074 1.97 3.257 4.27 7.129 6.61 3.87-2.34 6.052-4.64 7.126-6.61 1.111-2.04 1.03-3.7.477-4.82-.561-1.13-1.666-1.84-2.908-1.91zm4.187 7.69c-1.351 2.48-4.001 5.12-8.379 7.67l-.503.3-.504-.3c-4.379-2.55-7.029-5.19-8.382-7.67-1.36-2.5-1.41-4.86-.514-6.67.887-1.79 2.647-2.91 4.601-3.01 1.651-.09 3.368.56 4.798 2.01 1.429-1.45 3.146-2.1 4.796-2.01 1.954.1 3.714 1.22 4.601 3.01.896 1.81.846 4.17-.514 6.67z"/>
  </symbol>

  <symbol id="icon-bookmark" viewBox="0 0 24 24">
    <path d="M4 4.5C4 3.12 5.119 2 6.5 2h11C18.881 2 20 3.12 20 4.5v18.44l-8-5.71-8 5.71V4.5zM6.5 4c-.276 0-.5.22-.5.5v14.56l6-4.29 6 4.29V4.5c0-.28-.224-.5-.5-.5h-11z"/>
  </symbol>

  <symbol id="icon-link" viewBox="0 0 16 16">
    <path d="M11.087.8a4.12 4.12 0 0 0-2.923 1.183l-.73.73a.8.8 0 1 0 1.132 1.131l.72-.72a2.52 2.52 0 0 1 1.787-.724 2.52 2.52 0 0 1 1.776.757c.474.482.745 1.135.75 1.82a2.63 2.63 0 0 1-.714 1.83L10.88 8.842c-.259.263-.57.466-.911.595a2.5 2.5 0 0 1-2.105-.153c-.32-.178-.6-.424-.82-.722a.8.8 0 0 0-1.288.949c.355.482.81.882 1.332 1.172a4.11 4.11 0 0 0 4.933-.718l2.009-2.04a4.26 4.26 0 0 0 1.17-2.96 4.23 4.23 0 0 0-1.211-2.93A4.12 4.12 0 0 0 11.087.8"/>
    <path d="M7.215 4.81a4.1 4.1 0 0 0-1.75.256 4.14 4.14 0 0 0-1.486.97L1.97 8.075a4.26 4.26 0 0 0-1.17 2.96 4.23 4.23 0 0 0 1.21 2.93A4.12 4.12 0 0 0 4.914 15.2a4.12 4.12 0 0 0 2.923-1.183l.73-.73a.8.8 0 0 0-1.132-1.132l-.721.722a2.52 2.52 0 0 1-1.786.723 2.52 2.52 0 0 1-1.776-.758 2.63 2.63 0 0 1-.75-1.82 2.63 2.63 0 0 1 .714-1.83L5.12 7.159c.259-.264.57-.466.911-.596a2.5 2.5 0 0 1 2.105.154c.32.177.6.424.82.722a.8.8 0 0 0 1.288-.949 4.2 4.2 0 0 0-1.332-1.172 4.1 4.1 0 0 0-1.697-.506Z"/>
  </symbol>

  <!-- Arrows -->
  <symbol id="icon-chevron-down" viewBox="0 0 16 16">
    <path fill-rule="evenodd" d="M14.16 5.029a.8.8 0 0 1 .011 1.131l-5.418 5.526A1.05 1.05 0 0 1 8 12a1.07 1.07 0 0 1-.754-.314L1.83 6.16a.8.8 0 1 1 1.14-1.12L8 10.17l5.029-5.13a.8.8 0 0 1 1.131-.011" clip-rule="evenodd"/>
  </symbol>

  <!-- Users -->
  <symbol id="icon-multiple-users" viewBox="0 0 16 16">
    <path fill-rule="evenodd" d="M6.4.8a3.6 3.6 0 1 0 0 7.2 3.6 3.6 0 0 0 0-7.2m-2 3.6a2 2 0 1 1 4 0 2 2 0 0 1-4 0M4 9.2a4 4 0 0 0-4 4v1.2a.8.8 0 0 0 .8.8H12a.8.8 0 0 0 .8-.8v-1.2a4 4 0 0 0-4-4zm-2.4 4A2.4 2.4 0 0 1 4 10.8h4.8a2.4 2.4 0 0 1 2.4 2.4v.4H1.6z" clip-rule="evenodd"/>
    <path d="M10.546 1.648a.8.8 0 0 1 1.114-.195A3.6 3.6 0 0 1 13.2 4.4c0 1.224-.62 2.3-1.54 2.947a.8.8 0 1 1-.92-1.31c.52-.365.86-.965.86-1.637s-.34-1.272-.86-1.638a.8.8 0 0 1-.194-1.114m3.412 7.637a.8.8 0 0 0-.716 1.43c.03.016.138.094.294.313.146.204.295.476.429.787.273.638.435 1.328.435 1.785a.8.8 0 0 0 0 1.6h.8a.8.8 0 0 0 .8-.8v-.8c0-.743-.238-1.653-.565-2.415a6 6 0 0 0-.597-1.087c-.218-.307-.51-.628-.88-.813"/>
  </symbol>

  <!-- Medias -->
  <symbol id="icon-file--pdf" viewBox="0 0 16 16">
    <path d="M4 .8a2.4 2.4 0 0 0-2.4 2.4v11.2a.8.8 0 1 0 1.6 0V3.2a.8.8 0 0 1 .8-.8h5.737a.8.8 0 0 1 .566.234l2.263 2.263a.8.8 0 0 1 .234.566V8.8a.8.8 0 1 0 1.6 0V5.463a2.4 2.4 0 0 0-.703-1.697l-2.263-2.263A2.4 2.4 0 0 0 9.737.8z"/>
    <path fill-rule="evenodd" d="M4.66 16c-.42 0-.66-.284-.66-.786v-3.628c0-.503.24-.786.66-.786h1.39c.998 0 1.67.726 1.67 1.863 0 1.127-.712 1.853-1.76 1.853h-.641v.698c0 .502-.24.786-.66.786Zm.659-2.593h.37c.439 0 .7-.252.7-.74 0-.486-.261-.737-.69-.737h-.38zm2.868 1.718c0 .503.24.786.66.786h1.259c1.36 0 2.162-.956 2.162-2.592s-.8-2.52-2.162-2.52h-1.26c-.42 0-.66.284-.66.787zm1.732-.407h-.413v-2.724h.413c.632 0 1.005.464 1.005 1.325 0 .942-.345 1.399-1.005 1.399" clip-rule="evenodd"/>
    <path d="M12.784 15.214c0 .502.24.786.66.786.419 0 .658-.284.658-.786V14.1h1.182c.336 0 .542-.205.542-.563s-.212-.563-.542-.563h-1.182v-.978h1.316c.349 0 .582-.216.582-.598 0-.383-.227-.6-.582-.6h-1.975c-.42 0-.66.284-.66.787v3.628Z"/>
  </symbol>

  <symbol id="icon-file--text" viewBox="0 0 16 16">
    <path d="M3.2 1.6A1.6 1.6 0 0 1 4.8 0h4.469c.424 0 .831.168 1.131.469l1.931 1.931c.3.3.469.707.469 1.131v9.269a1.6 1.6 0 0 1-1.6 1.6H4.8a1.6 1.6 0 0 1-1.6-1.6zm6.4.731V3.2h.869z"/>
    <path d="M5.6 6.4a.8.8 0 0 1 .8-.8h3.2a.8.8 0 0 1 0 1.6H6.4a.8.8 0 0 1-.8-.8m0 2.4a.8.8 0 0 1 .8-.8h4.8a.8.8 0 0 1 0 1.6H6.4a.8.8 0 0 1-.8-.8m.8 1.6a.8.8 0 0 0 0 1.6h2.4a.8.8 0 0 0 0-1.6z"/>
  </symbol>

  <!-- Content -->
  <symbol id="icon-paper-plane" viewBox="0 0 16 16">
    <path d="M13.67 2.4 2.9 7.02a.53.53 0 0 0 .04.99l3.3 1.02 1.02 3.3a.53.53 0 0 0 .99.04L12.87 3.6a.53.53 0 0 0-.2-.72.54.54 0 0 0-.5-.02ZM7.1 8.54l3.4-3.4-2.52 4.83-.6-1.93a.67.67 0 0 0-.28-.37Z"/>
  </symbol>

  <!-- Display -->
  <symbol id="icon-bar-graph" viewBox="0 0 24 24">
    <path d="M8.75 21V3h2v18h-2zM18 21V8.5h2V21h-2zM4 21l.004-10h2L6 21H4zm9.248 0v-7h2v7h-2z"/>
  </symbol>

  <!-- Misc -->
  <symbol id="icon-headset" viewBox="0 0 16 16">
    <path d="M8 1.6a5.6 5.6 0 0 0-5.6 5.6v2a2 2 0 0 0 2 2h.4a1.6 1.6 0 0 0 1.6-1.6V8a1.6 1.6 0 0 0-1.6-1.6H4a4 4 0 1 1 8 0h-.8A1.6 1.6 0 0 0 9.6 8v1.6a1.6 1.6 0 0 0 1.6 1.6h.4v.4a1.2 1.2 0 0 1-1.2 1.2H8.8a.8.8 0 0 0 0 1.6h1.6a2.8 2.8 0 0 0 2.8-2.8v-2.4A5.6 5.6 0 0 0 8 1.6"/>
  </symbol>

  <symbol id="icon-note" viewBox="0 0 16 16">
    <path d="M5.935 7.743a.205.205 0 0 0-.301 0l-.246.266a.8.8 0 1 1-1.176-1.085l.246-.267a1.805 1.805 0 0 1 2.653 0c.081.088.22.088.301 0a1.805 1.805 0 0 1 2.653 0c.08.088.22.088.301 0l.246-.266a.8.8 0 0 1 1.176 1.085l-.246.267a1.805 1.805 0 0 1-2.653 0 .205.205 0 0 0-.301 0 1.805 1.805 0 0 1-2.653 0m-.315 3.616a.225.225 0 0 1 .33 0 1.825 1.825 0 0 0 2.632.052l.045-.045a.8.8 0 0 0-1.131-1.132l-.046.046a.225.225 0 0 1-.324-.006 1.825 1.825 0 0 0-2.682 0l-.232.25a.8.8 0 0 0 1.176 1.085l.231-.25Z"/>
    <path fill-rule="evenodd" d="M12 .8a.8.8 0 0 0-1.6 0v.8H8.8V.8a.8.8 0 1 0-1.6 0v.8H5.6V.8A.8.8 0 1 0 4 .8v.8h-.8A2.4 2.4 0 0 0 .8 4v8.8a2.4 2.4 0 0 0 2.4 2.4h9.6a2.4 2.4 0 0 0 2.4-2.4V4a2.4 2.4 0 0 0-2.4-2.4H12zM4 3.2h-.8a.8.8 0 0 0-.8.8v8.8a.8.8 0 0 0 .8.8h9.6a.8.8 0 0 0 .8-.8V4a.8.8 0 0 0-.8-.8H12V4a.8.8 0 0 1-1.6 0v-.8H8.8V4a.8.8 0 1 1-1.6 0v-.8H5.6V4A.8.8 0 1 1 4 4z" clip-rule="evenodd"/>
  </symbol>

  <symbol id="icon-cog" viewBox="0 0 16 16">
    <g fill-rule="evenodd" clip-rule="evenodd">
      <path d="M4.8 8a3.2 3.2 0 1 0 6.4 0 3.2 3.2 0 1 0-6.4 0m1.6 0c0-.88.72-1.6 1.6-1.6s1.6.72 1.6 1.6S8.88 9.6 8 9.6 6.4 8.88 6.4 8"/>
      <path d="M5.081 15.056c.232.096.48.144.727.144l.024-.008a1.9 1.9 0 0 0 1.414-.63l.543-.592a.24.24 0 0 1 .103-.072.32.32 0 0 1 .36.072l.535.6c.263.287.607.486.998.574.383.08.775.048 1.142-.104.368-.143.671-.407.879-.734a1.96 1.96 0 0 0 .295-1.119l-.04-.798a.23.23 0 0 1 .016-.128q.024-.062.072-.112a.24.24 0 0 1 .104-.072c.04-.024.08-.024.128-.024l.798.04c.4.016.783-.088 1.118-.295a1.89 1.89 0 0 0 .847-2.037 1.9 1.9 0 0 0-.583-.998l-.59-.535a.3.3 0 0 1-.097-.232c0-.048 0-.088.024-.128s.08-.103.08-.103l.591-.536c.296-.263.495-.614.583-.998a1.9 1.9 0 0 0-.096-1.15 1.88 1.88 0 0 0-.742-.886 1.9 1.9 0 0 0-1.119-.296l-.79.04a.4.4 0 0 1-.128-.024.3.3 0 0 1-.112-.072.3.3 0 0 1-.072-.112c-.024-.04-.024-.087-.024-.127l.04-.799a1.92 1.92 0 0 0-1.182-1.86 1.9 1.9 0 0 0-1.15-.097 1.87 1.87 0 0 0-.998.583l-.543.591a.24.24 0 0 1-.104.08.35.35 0 0 1-.256 0 .5.5 0 0 1-.103-.08l-.536-.59A1.98 1.98 0 0 0 6.24.855a1.92 1.92 0 0 0-2.037.839 1.96 1.96 0 0 0-.295 1.118l.04.799a.34.34 0 0 1-.096.24.3.3 0 0 1-.112.071c-.04.024-.08.024-.127.024l-.799-.04a1.916 1.916 0 0 0-1.374 3.33l.591.544a.3.3 0 0 1 .096.231.3.3 0 0 1-.024.128c-.024.04-.08.104-.08.104l-.59.535a1.9 1.9 0 0 0-.584.998 1.9 1.9 0 0 0 .096 1.15c.152.368.407.68.743.887.335.215.727.32 1.118.295l.799-.04a.23.23 0 0 1 .127.016c.04.016.08.04.112.072.023.023.038.05.053.078q.008.017.02.034c.023.04.023.088.023.128l-.04.798a1.92 1.92 0 0 0 1.182 1.86ZM4.322 10.6a1.8 1.8 0 0 0-.686-.128l.008-.024h-.096l-.799.04a.3.3 0 0 1-.184-.048.27.27 0 0 1-.12-.144.3.3 0 0 1-.015-.191.3.3 0 0 1 .095-.168l.591-.535q.302-.276.472-.647a1.87 1.87 0 0 0 0-1.549 1.76 1.76 0 0 0-.464-.64l-.59-.534a.3.3 0 0 1-.096-.16.32.32 0 0 1 .135-.336.4.4 0 0 1 .184-.048l.79.04c.272.016.528-.032.783-.127a1.9 1.9 0 0 0 1.095-1.103c.103-.255.143-.519.127-.782l-.04-.799q0-.098.048-.184a.27.27 0 0 1 .144-.12.3.3 0 0 1 .192-.015.3.3 0 0 1 .16.096l.535.59c.175.2.39.352.638.464a1.92 1.92 0 0 0 1.558 0c.247-.112.463-.264.639-.463l.535-.591a.36.36 0 0 1 .168-.096.3.3 0 0 1 .191.016.3.3 0 0 1 .144.12.4.4 0 0 1 .048.183l-.04.799c-.008.263.032.527.128.782.096.248.24.472.431.663q.277.288.663.432c.247.095.511.143.783.127l.79-.04a.3.3 0 0 1 .184.048.32.32 0 0 1 .136.335.32.32 0 0 1-.096.169l-.591.535a1.96 1.96 0 0 0-.631 1.421c0 .272.056.527.168.775.104.247.263.471.463.647l.59.535q.073.072.097.168a.3.3 0 0 1-.016.191.3.3 0 0 1-.128.144.4.4 0 0 1-.184.048l-.798-.04a2 2 0 0 0-.783.128 1.9 1.9 0 0 0-.67.431 2 2 0 0 0-.432.67 1.9 1.9 0 0 0-.128.784l.04.79a.3.3 0 0 1-.048.184.3.3 0 0 1-.144.12c-.064.016-.127.032-.191.016a.3.3 0 0 1-.16-.088L9.41 12.9a1.85 1.85 0 0 0-.64-.463 1.94 1.94 0 0 0-1.548 0 1.85 1.85 0 0 0-.64.463l-.534.59a.36.36 0 0 1-.168.097.3.3 0 0 1-.184-.016.3.3 0 0 1-.144-.12.34.34 0 0 1-.048-.176l.04-.798a2 2 0 0 0-.127-.783A1.9 1.9 0 0 0 4.322 10.6"/>
    </g>
  </symbol>

  <symbol id="icon-megaphone" viewBox="0 0 16 16">
    <path fill-rule="evenodd" d="M12.8 3.2a.8.8 0 0 0-1.28-.64C9.875 3.794 7.464 4.799 5.602 4.8H4.1c-.865 0-1.7.33-2.322.926A3.15 3.15 0 0 0 .8 8c0 .86.356 1.677.978 2.274A3.35 3.35 0 0 0 4.1 11.2h.77c.079.448.224.885.43 1.299a5.3 5.3 0 0 0 1.394 1.721.8.8 0 1 0 1.011-1.24 3.7 3.7 0 0 1-.973-1.197 3 3 0 0 1-.203-.509c1.684.253 3.608 1.13 4.991 2.166a.8.8 0 0 0 1.28-.64zm-8 3.2h-.7c-.461 0-.897.176-1.214.48A1.55 1.55 0 0 0 2.4 8c0 .414.17.817.486 1.12.317.304.753.48 1.214.48h.7zm1.6 3.244V6.356c1.61-.173 3.348-.834 4.8-1.674v6.636c-1.452-.84-3.19-1.5-4.8-1.674" clip-rule="evenodd"/>
    <path d="M15.2 7.2a.8.8 0 0 0-1.6 0v1.6a.8.8 0 0 0 1.6 0z"/>
  </symbol>

  <!-- Status -->
  <symbol id="icon-info" viewBox="0 0 16 16">
    <path d="M8 7.2a.8.8 0 0 1 .8.8v3.2a.8.8 0 1 1-1.6 0V8a.8.8 0 0 1 .8-.8M8.01 4a1 1 0 1 0-.007 2c.553 0 1.008-.448 1.008-1a1 1 0 0 0-1-1Z"/>
    <path fill-rule="evenodd" d="M.8 8a7.2 7.2 0 1 1 14.4 0A7.2 7.2 0 0 1 .8 8M8 2.4a5.6 5.6 0 1 0 0 11.2A5.6 5.6 0 0 0 8 2.4" clip-rule="evenodd"/>
  </symbol>

  <symbol id="icon-question" viewBox="0 0 16 16">
    <path d="M8.063 5.516a.907.907 0 0 0-.97.904.8.8 0 0 1-1.6 0 2.507 2.507 0 0 1 4.807-.995c.183.421.246.885.183 1.34a2.51 2.51 0 0 1-1.647 2.019.05.05 0 0 0-.036.05v.095a.8.8 0 1 1-1.6 0v-.094a1.655 1.655 0 0 1 1.102-1.56.907.907 0 0 0-.24-1.759Zm-.056 4.77c-.552 0-1.007.448-1.007 1s.455 1 1.007 1a1 1 0 0 0 0-2"/>
    <path fill-rule="evenodd" d="M.8 8a7.2 7.2 0 1 1 14.4 0A7.2 7.2 0 0 1 .8 8M8 2.4a5.6 5.6 0 1 0 0 11.2A5.6 5.6 0 0 0 8 2.4" clip-rule="evenodd"/>
  </symbol>

  <!-- Conversations -->
  <symbol id="icon-single-chat-bubble" viewBox="0 0 16 16">
    <path d="M3.2 3.47a1.6 1.6 0 0 1 1.6-1.6h6.4a1.6 1.6 0 0 1 1.6 1.6v4.26a1.6 1.6 0 0 1-1.6 1.6H7.32L4.8 11.9v-2.57a1.6 1.6 0 0 1-1.6-1.6V3.47Zm1.6-.27a.27.27 0 0 0-.27.27v4.26c0 .15.12.27.27.27h1.33v1.34L7 8h4.2a.27.27 0 0 0 .27-.27V3.47a.27.27 0 0 0-.27-.27H4.8Z"/>
  </symbol>

  <!-- Special: folder with renamed clipPath to avoid id collision in sprite -->
  <symbol id="icon-folder" viewBox="0 0 16 16">
    <g clip-path="url(#clip-icon-folder)">
      <path d="M.8 9.6V2.844c0-.55.225-1.071.617-1.453A2.1 2.1 0 0 1 2.88.801H6l.098.005a.8.8 0 0 1 .563.343l1.402 2.054H12a.8.8 0 0 1 0 1.6H7.641a.8.8 0 0 1-.661-.35L5.578 2.4H2.88a.5.5 0 0 0-.347.138.43.43 0 0 0-.133.306V9.6a.8.8 0 1 1-1.6 0"/>
      <path d="M13.6 8a.8.8 0 0 0-.8-.8H5.6a.8.8 0 0 0-.8.8v4.8a.8.8 0 0 0 .8.8h7.2a.8.8 0 0 0 .8-.8zm1.6 4.8a2.4 2.4 0 0 1-2.4 2.4H5.6a2.4 2.4 0 0 1-2.4-2.4V8a2.4 2.4 0 0 1 2.4-2.4h7.2A2.4 2.4 0 0 1 15.2 8z"/>
      <path d="M7.2 11.838V8.962c0-.427.49-.698.89-.491l2.8 1.445a.545.545 0 0 1-.003.984l-2.8 1.43c-.4.205-.887-.066-.887-.492"/>
    </g>
    <defs>
      <clipPath id="clip-icon-folder">
        <path fill="#fff" d="M0 0h16v16H0z"/>
      </clipPath>
    </defs>
  </symbol>

  <!-- Pen (from pencil) -->
  <symbol id="icon-pen" viewBox="0 0 16 16">
    <path fill-rule="evenodd" d="M12.317.8a2.87 2.87 0 0 1 2.046.839 2.87 2.87 0 0 1-.024 4.074l-8.245 8.245a.8.8 0 0 1-.367.21l-3.928 1.007a.8.8 0 0 1-.974-.974l1.007-3.928a.8.8 0 0 1 .21-.367l8.245-8.246a2.87 2.87 0 0 1 2.03-.86m.5 1.695a1.27 1.27 0 0 0-1.39.287l-.006.007-.15.15 1.79 1.79.157-.158a1.27 1.27 0 0 0 .013-1.802 1.3 1.3 0 0 0-.414-.274M5.67 8.539l4.468-4.468 1.79 1.79-4.469 4.468zM4.539 9.671l-1.212 1.212-.616 2.406 2.406-.617L6.33 11.46 4.54 9.67Z" clip-rule="evenodd"/>
  </symbol>

  <!-- Thumb up (LinkedIn like) -->
  <symbol id="icon-thumb-up" viewBox="0 0 16 16">
    <path d="M6.67 14H4.13A1.33 1.33 0 0 1 2.8 12.67V7.33A1.33 1.33 0 0 1 4.13 6h2.54v8ZM8 14h3.12c.56 0 1.05-.35 1.23-.88l1.28-3.84a1.33 1.33 0 0 0-1.26-1.75H9.33l.3-2.1v-.18A1.25 1.25 0 0 0 9.3 4.5L8.6 3.8 4.67 7.73v5.6c0 .37.3.67.66.67H8Z"/>
  </symbol>
</svg>
