<svg id="my-svg" width="100%" xmlns="http://www.w3.org/2000/svg" xmlns:xlink="http://www.w3.org/1999/xlink" class="flowchart" style="max-width: 819.094px; background-color: transparent;" viewBox="0 0 819.09375 1013.8834228515625" role="graphics-document document" aria-roledescription="flowchart-v2"><style>#my-svg{font-family:"trebuchet ms",verdana,arial,sans-serif;font-size:16px;fill:#333;}@keyframes edge-animation-frame{from{stroke-dashoffset:0;}}@keyframes dash{to{stroke-dashoffset:0;}}#my-svg .edge-animation-slow{stroke-dasharray:9,5!important;stroke-dashoffset:900;animation:dash 50s linear infinite;stroke-linecap:round;}#my-svg .edge-animation-fast{stroke-dasharray:9,5!important;stroke-dashoffset:900;animation:dash 20s linear infinite;stroke-linecap:round;}#my-svg .error-icon{fill:#552222;}#my-svg .error-text{fill:#552222;stroke:#552222;}#my-svg .edge-thickness-normal{stroke-width:1px;}#my-svg .edge-thickness-thick{stroke-width:3.5px;}#my-svg .edge-pattern-solid{stroke-dasharray:0;}#my-svg .edge-thickness-invisible{stroke-width:0;fill:none;}#my-svg .edge-pattern-dashed{stroke-dasharray:3;}#my-svg .edge-pattern-dotted{stroke-dasharray:2;}#my-svg .marker{fill:#333333;stroke:#333333;}#my-svg .marker.cross{stroke:#333333;}#my-svg svg{font-family:"trebuchet ms",verdana,arial,sans-serif;font-size:16px;}#my-svg p{margin:0;}#my-svg .label{font-family:"trebuchet ms",verdana,arial,sans-serif;color:#333;}#my-svg .cluster-label text{fill:#333;}#my-svg .cluster-label span{color:#333;}#my-svg .cluster-label span p{background-color:transparent;}#my-svg .label text,#my-svg span{fill:#333;color:#333;}#my-svg .node rect,#my-svg .node circle,#my-svg .node ellipse,#my-svg .node polygon,#my-svg .node path{fill:#ECECFF;stroke:#9370DB;stroke-width:1px;}#my-svg .rough-node .label text,#my-svg .node .label text,#my-svg .image-shape .label,#my-svg .icon-shape .label{text-anchor:middle;}#my-svg .node .katex path{fill:#000;stroke:#000;stroke-width:1px;}#my-svg .rough-node .label,#my-svg .node .label,#my-svg .image-shape .label,#my-svg .icon-shape .label{text-align:center;}#my-svg .node.clickable{cursor:pointer;}#my-svg .root .anchor path{fill:#333333!important;stroke-width:0;stroke:#333333;}#my-svg .arrowheadPath{fill:#333333;}#my-svg .edgePath .path{stroke:#333333;stroke-width:1px;}#my-svg .flowchart-link{stroke:#333333;fill:none;}#my-svg .edgeLabel{background-color:rgba(232,232,232, 0.8);text-align:center;}#my-svg .edgeLabel p{background-color:rgba(232,232,232, 0.8);}#my-svg .edgeLabel rect{opacity:0.5;background-color:rgba(232,232,232, 0.8);fill:rgba(232,232,232, 0.8);}#my-svg .labelBkg{background-color:rgba(232, 232, 232, 0.5);}#my-svg .cluster rect{fill:#ffffde;stroke:#aaaa33;stroke-width:1px;}#my-svg .cluster text{fill:#333;}#my-svg .cluster span{color:#333;}#my-svg div.mermaidTooltip{position:absolute;text-align:center;max-width:200px;padding:2px;font-family:"trebuchet ms",verdana,arial,sans-serif;font-size:12px;background:hsl(80, 100%, 96.2745098039%);border:1px solid #aaaa33;border-radius:2px;pointer-events:none;z-index:100;}#my-svg .flowchartTitleText{text-anchor:middle;font-size:18px;fill:#333;}#my-svg rect.text{fill:none;stroke-width:0;}#my-svg .icon-shape,#my-svg .image-shape{background-color:rgba(232,232,232, 0.8);text-align:center;}#my-svg .icon-shape p,#my-svg .image-shape p{background-color:rgba(232,232,232, 0.8);padding:2px;}#my-svg .icon-shape .label rect,#my-svg .image-shape .label rect{opacity:0.5;background-color:rgba(232,232,232, 0.8);fill:rgba(232,232,232, 0.8);}#my-svg .label-icon{display:inline-block;height:1em;overflow:visible;vertical-align:-0.125em;}#my-svg .node .label-icon path{fill:currentColor;stroke:revert;stroke-width:revert;}#my-svg .node .neo-node{stroke:#9370DB;}#my-svg [data-look="neo"].node rect,#my-svg [data-look="neo"].cluster rect,#my-svg [data-look="neo"].node polygon{stroke:#9370DB;filter:drop-shadow(1px 2px 2px rgba(185, 185, 185, 1));}#my-svg [data-look="neo"].node path{stroke:#9370DB;stroke-width:1px;}#my-svg [data-look="neo"].node .outer-path{filter:drop-shadow(1px 2px 2px rgba(185, 185, 185, 1));}#my-svg [data-look="neo"].node .neo-line path{stroke:#9370DB;filter:none;}#my-svg [data-look="neo"].node circle{stroke:#9370DB;filter:drop-shadow(1px 2px 2px rgba(185, 185, 185, 1));}#my-svg [data-look="neo"].node circle .state-start{fill:#000000;}#my-svg [data-look="neo"].icon-shape .icon{fill:#9370DB;filter:drop-shadow(1px 2px 2px rgba(185, 185, 185, 1));}#my-svg [data-look="neo"].icon-shape .icon-neo path{stroke:#9370DB;filter:drop-shadow(1px 2px 2px rgba(185, 185, 185, 1));}#my-svg :root{--mermaid-font-family:"trebuchet ms",verdana,arial,sans-serif;}#my-svg .ok&gt;*{fill:#d1fae5!important;stroke:#10b981!important;}#my-svg .ok span{fill:#d1fae5!important;stroke:#10b981!important;}#my-svg .broken&gt;*{fill:#fee2e2!important;stroke:#ef4444!important;}#my-svg .broken span{fill:#fee2e2!important;stroke:#ef4444!important;}</style><g><marker id="my-svg_flowchart-v2-pointEnd" class="marker flowchart-v2" viewBox="0 0 10 10" refX="5" refY="5" markerUnits="userSpaceOnUse" markerWidth="8" markerHeight="8" orient="auto"><path d="M 0 0 L 10 5 L 0 10 z" class="arrowMarkerPath" style="stroke-width: 1; stroke-dasharray: 1, 0;"/></marker><marker id="my-svg_flowchart-v2-pointStart" class="marker flowchart-v2" viewBox="0 0 10 10" refX="4.5" refY="5" markerUnits="userSpaceOnUse" markerWidth="8" markerHeight="8" orient="auto"><path d="M 0 5 L 10 10 L 10 0 z" class="arrowMarkerPath" style="stroke-width: 1; stroke-dasharray: 1, 0;"/></marker><marker id="my-svg_flowchart-v2-pointEnd-margin" class="marker flowchart-v2" viewBox="0 0 11.5 14" refX="11.5" refY="7" markerUnits="userSpaceOnUse" markerWidth="10.5" markerHeight="14" orient="auto"><path d="M 0 0 L 11.5 7 L 0 14 z" class="arrowMarkerPath" style="stroke-width: 0; stroke-dasharray: 1, 0;"/></marker><marker id="my-svg_flowchart-v2-pointStart-margin" class="marker flowchart-v2" viewBox="0 0 11.5 14" refX="1" refY="7" markerUnits="userSpaceOnUse" markerWidth="11.5" markerHeight="14" orient="auto"><polygon points="0,7 11.5,14 11.5,0" class="arrowMarkerPath" style="stroke-width: 0; stroke-dasharray: 1, 0;"/></marker><marker id="my-svg_flowchart-v2-circleEnd" class="marker flowchart-v2" viewBox="0 0 10 10" refX="11" refY="5" markerUnits="userSpaceOnUse" markerWidth="11" markerHeight="11" orient="auto"><circle cx="5" cy="5" r="5" class="arrowMarkerPath" style="stroke-width: 1; stroke-dasharray: 1, 0;"/></marker><marker id="my-svg_flowchart-v2-circleStart" class="marker flowchart-v2" viewBox="0 0 10 10" refX="-1" refY="5" markerUnits="userSpaceOnUse" markerWidth="11" markerHeight="11" orient="auto"><circle cx="5" cy="5" r="5" class="arrowMarkerPath" style="stroke-width: 1; stroke-dasharray: 1, 0;"/></marker><marker id="my-svg_flowchart-v2-circleEnd-margin" class="marker flowchart-v2" viewBox="0 0 10 10" refY="5" refX="12.25" markerUnits="userSpaceOnUse" markerWidth="14" markerHeight="14" orient="auto"><circle cx="5" cy="5" r="5" class="arrowMarkerPath" style="stroke-width: 0; stroke-dasharray: 1, 0;"/></marker><marker id="my-svg_flowchart-v2-circleStart-margin" class="marker flowchart-v2" viewBox="0 0 10 10" refX="-2" refY="5" markerUnits="userSpaceOnUse" markerWidth="14" markerHeight="14" orient="auto"><circle cx="5" cy="5" r="5" class="arrowMarkerPath" style="stroke-width: 0; stroke-dasharray: 1, 0;"/></marker><marker id="my-svg_flowchart-v2-crossEnd" class="marker cross flowchart-v2" viewBox="0 0 11 11" refX="12" refY="5.2" markerUnits="userSpaceOnUse" markerWidth="11" markerHeight="11" orient="auto"><path d="M 1,1 l 9,9 M 10,1 l -9,9" class="arrowMarkerPath" style="stroke-width: 2; stroke-dasharray: 1, 0;"/></marker><marker id="my-svg_flowchart-v2-crossStart" class="marker cross flowchart-v2" viewBox="0 0 11 11" refX="-1" refY="5.2" markerUnits="userSpaceOnUse" markerWidth="11" markerHeight="11" orient="auto"><path d="M 1,1 l 9,9 M 10,1 l -9,9" class="arrowMarkerPath" style="stroke-width: 2; stroke-dasharray: 1, 0;"/></marker><marker id="my-svg_flowchart-v2-crossEnd-margin" class="marker cross flowchart-v2" viewBox="0 0 15 15" refX="17.7" refY="7.5" markerUnits="userSpaceOnUse" markerWidth="12" markerHeight="12" orient="auto"><path d="M 1,1 L 14,14 M 1,14 L 14,1" class="arrowMarkerPath" style="stroke-width: 2.5;"/></marker><marker id="my-svg_flowchart-v2-crossStart-margin" class="marker cross flowchart-v2" viewBox="0 0 15 15" refX="-3.5" refY="7.5" markerUnits="userSpaceOnUse" markerWidth="12" markerHeight="12" orient="auto"><path d="M 1,1 L 14,14 M 1,14 L 14,1" class="arrowMarkerPath" style="stroke-width: 2.5; stroke-dasharray: 1, 0;"/></marker><g class="root"><g class="clusters"/><g class="edgePaths"><path d="M142.034,396.348L158.924,402.029C175.815,407.71,209.595,419.072,244.148,440.091C278.702,461.109,314.028,491.783,331.691,507.12L349.355,522.457" id="my-svg-L_AddSourceModal_SourcesStream_0" class="edge-thickness-normal edge-pattern-solid edge-thickness-normal edge-pattern-solid flowchart-link" style=";" data-edge="true" data-et="edge" data-id="L_AddSourceModal_SourcesStream_0" data-points="W3sieCI6MTQyLjAzNDI2MzM5NzYxMTU0LCJ5IjozOTYuMzQ3NjM3MTc2NTEzN30seyJ4IjoyNDMuMzc1LCJ5Ijo0MzAuNDM0ODEwNjM4NDI3NzN9LHsieCI6MzUyLjM3NSwieSI6NTI1LjA3OTMyNjYyNzQ1NDN9XQ==" data-look="classic" marker-end="url(#my-svg_flowchart-v2-pointEnd)"/><path d="M113.395,357.348L135.058,342.529C156.722,327.71,200.048,298.072,235.055,294.312C270.062,290.553,296.749,312.672,310.092,323.732L323.436,334.791" id="my-svg-L_AddSourceModal_Mocks_0" class="edge-thickness-normal edge-pattern-solid edge-thickness-normal edge-pattern-solid flowchart-link" style=";" data-edge="true" data-et="edge" data-id="L_AddSourceModal_Mocks_0" data-points="W3sieCI6MTEzLjM5NTAzNTQyMjkyOTk2LCJ5IjozNTcuMzQ3NjM3MTc2NTEzN30seyJ4IjoyNDMuMzc1LCJ5IjoyNjguNDMzODIyNjMxODM1OTR9LHsieCI6MzI2LjUxNTYyNSwieSI6MzM3LjM0Mzk4OTE1MTAyODh9XQ==" data-look="classic" marker-end="url(#my-svg_flowchart-v2-pointEnd)"/><path d="M109.763,510.935L132.032,528.185C154.3,545.435,198.838,579.935,242.24,570.314C285.643,560.692,327.911,506.949,349.045,480.077L370.18,453.205" id="my-svg-L_SettingsDrawer_Mocks_0" class="edge-thickness-normal edge-pattern-solid edge-thickness-normal edge-pattern-solid flowchart-link" style=";" data-edge="true" data-et="edge" data-id="L_SettingsDrawer_Mocks_0" data-points="W3sieCI6MTA5Ljc2Mjk1NjcyNzI0MDk2LCJ5Ijo1MTAuOTM0ODEwNjM4NDI3N30seyJ4IjoyNDMuMzc1LCJ5Ijo2MTQuNDM1Nzk4NjQ1MDE5NX0seyJ4IjozNzIuNjUyMjk5NDg0MjE3MzQsInkiOjQ1MC4wNjExMTUzNzk0MTc2fV0=" data-look="classic" marker-end="url(#my-svg_flowchart-v2-pointEnd)"/><path d="M153.063,479.186L168.115,476.394C183.167,473.602,213.271,468.019,241.565,459.671C269.859,451.324,296.343,440.213,309.585,434.658L322.827,429.103" id="my-svg-L_SettingsDrawer_Mocks_2" class="edge-thickness-normal edge-pattern-solid edge-thickness-normal edge-pattern-solid flowchart-link" style=";" data-edge="true" data-et="edge" data-id="L_SettingsDrawer_Mocks_2" data-points="W3sieCI6MTUzLjA2MjUsInkiOjQ3OS4xODYxNzE5MzM0OTc2M30seyJ4IjoyNDMuMzc1LCJ5Ijo0NjIuNDM0ODEwNjM4NDI3NzN9LHsieCI6MzI2LjUxNTYyNSwieSI6NDI3LjU1NTI2MzMwMjU3NDUzfV0=" data-look="classic" marker-end="url(#my-svg_flowchart-v2-pointEnd)"/><path d="M148.977,686.953L164.71,689.7C180.443,692.447,211.909,697.942,245.307,685.205C278.706,672.469,314.036,641.502,331.702,626.018L349.367,610.535" id="my-svg-L_SessionComposer_SourcesStream_0" class="edge-thickness-normal edge-pattern-solid edge-thickness-normal edge-pattern-solid flowchart-link" style=";" data-edge="true" data-et="edge" data-id="L_SessionComposer_SourcesStream_0" data-points="W3sieCI6MTQ4Ljk3NjU2MjUsInkiOjY4Ni45NTMyMzc5Mzg2MTc4fSx7IngiOjI0My4zNzUsInkiOjcwMy40MzU3OTg2NDUwMTk1fSx7IngiOjM1Mi4zNzUsInkiOjYwNy44OTc5ODk4MTc0NDU3fV0=" data-look="classic" marker-end="url(#my-svg_flowchart-v2-pointEnd)"/><path d="M148.977,671.395L164.71,670.318C180.443,669.242,211.909,667.089,258.034,666.012C304.159,664.936,364.943,664.936,424.326,664.936C483.708,664.936,541.69,664.936,582.528,659.65C623.366,654.365,647.06,643.794,658.906,638.508L670.753,633.223" id="my-svg-L_SessionComposer_Library_0" class="edge-thickness-normal edge-pattern-solid edge-thickness-normal edge-pattern-solid flowchart-link" style=";" data-edge="true" data-et="edge" data-id="L_SessionComposer_Library_0" data-points="W3sieCI6MTQ4Ljk3NjU2MjUsInkiOjY3MS4zOTQ1OTE4NzUzMzU5fSx7IngiOjI0My4zNzUsInkiOjY2NC45MzU3OTg2NDUwMTk1fSx7IngiOjQyNS43MjY1NjI1LCJ5Ijo2NjQuOTM1Nzk4NjQ1MDE5NX0seyJ4Ijo1OTkuNjcxODc1LCJ5Ijo2NjQuOTM1Nzk4NjQ1MDE5NX0seyJ4Ijo2NzQuNDA2MjUsInkiOjYzMS41OTMyNzA3ODQ5NTY5fV0=" data-look="classic" marker-end="url(#my-svg_flowchart-v2-pointEnd)"/><path d="M499.078,566.188L515.844,566.188C532.609,566.188,566.141,566.188,594.714,569.069C623.288,571.951,646.904,577.714,658.712,580.595L670.52,583.476" id="my-svg-L_SourcesStream_Library_0" class="edge-thickness-normal edge-pattern-dotted edge-thickness-normal edge-pattern-solid flowchart-link" style=";" data-edge="true" data-et="edge" data-id="L_SourcesStream_Library_0" data-points="W3sieCI6NDk5LjA3ODEyNSwieSI6NTY2LjE4ODA4NzQ2MzM3ODl9LHsieCI6NTk5LjY3MTg3NSwieSI6NTY2LjE4ODA4NzQ2MzM3ODl9LHsieCI6Njc0LjQwNjI1LCJ5Ijo1ODQuNDI0NzEyNDQ2MTQ1NX1d" data-look="classic" marker-end="url(#my-svg_flowchart-v2-pointEnd)"/><path d="M115.305,131.766L136.65,145.299C157.995,158.832,200.685,185.897,239.932,199.43C279.18,212.963,314.984,212.963,332.887,212.963L350.789,212.963" id="my-svg-L_DraftFlow_Posts_0" class="edge-thickness-normal edge-pattern-solid edge-thickness-normal edge-pattern-solid flowchart-link" style=";" data-edge="true" data-et="edge" data-id="L_DraftFlow_Posts_0" data-points="W3sieCI6MTE1LjMwNTE4NDU3NjAxMDE2LCJ5IjoxMzEuNzY1OTM3ODA1MTc1Nzh9LHsieCI6MjQzLjM3NSwieSI6MjEyLjk2Mjc0NTY2NjUwMzl9LHsieCI6MzU0Ljc4OTA2MjUsInkiOjIxMi45NjI3NDU2NjY1MDM5fV0=" data-look="classic" marker-end="url(#my-svg_flowchart-v2-pointEnd)"/><path d="M133.313,96.365L151.656,90.265C170,84.165,206.688,71.964,242.51,65.864C278.333,59.764,313.292,59.764,330.771,59.764L348.25,59.764" id="my-svg-L_DraftFlow_Assistant_0" class="edge-thickness-normal edge-pattern-solid edge-thickness-normal edge-pattern-solid flowchart-link" style=";" data-edge="true" data-et="edge" data-id="L_DraftFlow_Assistant_0" data-points="W3sieCI6MTMzLjMxMjUsInkiOjk2LjM2NTQ4NDQ0NTEwNzM0fSx7IngiOjI0My4zNzUsInkiOjU5Ljc2MzU3MjY5Mjg3MTA5NH0seyJ4IjozNTIuMjUsInkiOjU5Ljc2MzU3MjY5Mjg3MTA5NH1d" data-look="classic" marker-end="url(#my-svg_flowchart-v2-pointEnd)"/><path d="M134.234,853.436L152.424,853.352C170.615,853.269,206.995,853.102,244.999,849.393C283.004,845.683,322.632,838.43,342.446,834.804L362.261,831.177" id="my-svg-L_Dashboard_Handoff_0" class="edge-thickness-normal edge-pattern-solid edge-thickness-normal edge-pattern-solid flowchart-link" style=";" data-edge="true" data-et="edge" data-id="L_Dashboard_Handoff_0" data-points="W3sieCI6MTM0LjIzNDM3NSwieSI6ODUzLjQzNTc5ODY0NTAxOTV9LHsieCI6MjQzLjM3NSwieSI6ODUyLjkzNTc5ODY0NTAxOTV9LHsieCI6MzY2LjE5NTMxMjUsInkiOjgzMC40NTczMTA4NDQ4NzAyfV0=" data-look="classic" marker-end="url(#my-svg_flowchart-v2-pointEnd)"/><path d="M148.445,764.436L164.267,764.352C180.089,764.269,211.732,764.102,247.386,770.069C283.04,776.035,322.705,788.135,342.537,794.185L362.369,800.235" id="my-svg-L_Session_Handoff_0" class="edge-thickness-normal edge-pattern-dotted edge-thickness-normal edge-pattern-solid flowchart-link" style=";" data-edge="true" data-et="edge" data-id="L_Session_Handoff_0" data-points="W3sieCI6MTQ4LjQ0NTMxMjUsInkiOjc2NC40MzU3OTg2NDUwMTk1fSx7IngiOjI0My4zNzUsInkiOjc2My45MzU3OTg2NDUwMTk1fSx7IngiOjM2Ni4xOTUzMTI1LCJ5Ijo4MDEuNDAyMDAwNDQ2ODU4MX1d" data-look="classic" marker-end="url(#my-svg_flowchart-v2-pointEnd)"/><path d="M135.484,967.35L153.466,967.266C171.448,967.183,207.411,967.016,243.793,966.933C280.174,966.85,316.974,966.85,335.374,966.85L353.773,966.85" id="my-svg-L_AllScreens_UrlState_0" class="edge-thickness-normal edge-pattern-solid edge-thickness-normal edge-pattern-solid flowchart-link" style=";" data-edge="true" data-et="edge" data-id="L_AllScreens_UrlState_0" data-points="W3sieCI6MTM1LjQ4NDM3NSwieSI6OTY3LjM0OTYxMzE4OTY5NzN9LHsieCI6MjQzLjM3NSwieSI6OTY2Ljg0OTYxMzE4OTY5NzN9LHsieCI6MzU3Ljc3MzQzNzUsInkiOjk2Ni44NDk2MTMxODk2OTczfV0=" data-look="classic" marker-end="url(#my-svg_flowchart-v2-pointEnd)"/></g><g class="edgeLabels"><g class="edgeLabel"><g class="label" data-id="L_AddSourceModal_SourcesStream_0" transform="translate(0, 0)"><foreignObject width="0" height="0"><div xmlns="http://www.w3.org/1999/xhtml" class="labelBkg" style="display: table-cell; white-space: nowrap; line-height: 1.5; max-width: 200px; text-align: center;"><span class="edgeLabel"></span></div></foreignObject></g></g><g class="edgeLabel" transform="translate(222.949, 282.40639)"><g class="label" data-id="L_AddSourceModal_Mocks_0" transform="translate(-48.7265625, -12)"><foreignObject width="97.453125" height="24"><div xmlns="http://www.w3.org/1999/xhtml" class="labelBkg" style="display: table-cell; white-space: nowrap; line-height: 1.5; max-width: 200px; text-align: center;"><span class="edgeLabel"><p>FIND-01 mute</p></span></div></foreignObject></g></g><g class="edgeLabel" transform="translate(255.77299, 598.67189)"><g class="label" data-id="L_SettingsDrawer_Mocks_0" transform="translate(-48.7265625, -12)"><foreignObject width="97.453125" height="24"><div xmlns="http://www.w3.org/1999/xhtml" class="labelBkg" style="display: table-cell; white-space: nowrap; line-height: 1.5; max-width: 200px; text-align: center;"><span class="edgeLabel"><p>FIND-01 mute</p></span></div></foreignObject></g></g><g class="edgeLabel" transform="translate(242.54307, 462.58912)"><g class="label" data-id="L_SettingsDrawer_Mocks_2" transform="translate(-58.140625, -12)"><foreignObject width="116.28125" height="24"><div xmlns="http://www.w3.org/1999/xhtml" class="labelBkg" style="display: table-cell; white-space: nowrap; line-height: 1.5; max-width: 200px; text-align: center;"><span class="edgeLabel"><p>prefs/notif Save</p></span></div></foreignObject></g></g><g class="edgeLabel"><g class="label" data-id="L_SessionComposer_SourcesStream_0" transform="translate(0, 0)"><foreignObject width="0" height="0"><div xmlns="http://www.w3.org/1999/xhtml" class="labelBkg" style="display: table-cell; white-space: nowrap; line-height: 1.5; max-width: 200px; text-align: center;"><span class="edgeLabel"></span></div></foreignObject></g></g><g class="edgeLabel"><g class="label" data-id="L_SessionComposer_Library_0" transform="translate(0, 0)"><foreignObject width="0" height="0"><div xmlns="http://www.w3.org/1999/xhtml" class="labelBkg" style="display: table-cell; white-space: nowrap; line-height: 1.5; max-width: 200px; text-align: center;"><span class="edgeLabel"></span></div></foreignObject></g></g><g class="edgeLabel" transform="translate(599.671875, 566.1880874633789)"><g class="label" data-id="L_SourcesStream_Library_0" transform="translate(-49.734375, -12)"><foreignObject width="99.46875" height="24"><div xmlns="http://www.w3.org/1999/xhtml" class="labelBkg" style="display: table-cell; white-space: nowrap; line-height: 1.5; max-width: 200px; text-align: center;"><span class="edgeLabel"><p>notify fan-out</p></span></div></foreignObject></g></g><g class="edgeLabel"><g class="label" data-id="L_DraftFlow_Posts_0" transform="translate(0, 0)"><foreignObject width="0" height="0"><div xmlns="http://www.w3.org/1999/xhtml" class="labelBkg" style="display: table-cell; white-space: nowrap; line-height: 1.5; max-width: 200px; text-align: center;"><span class="edgeLabel"></span></div></foreignObject></g></g><g class="edgeLabel"><g class="label" data-id="L_DraftFlow_Assistant_0" transform="translate(0, 0)"><foreignObject width="0" height="0"><div xmlns="http://www.w3.org/1999/xhtml" class="labelBkg" style="display: table-cell; white-space: nowrap; line-height: 1.5; max-width: 200px; text-align: center;"><span class="edgeLabel"></span></div></foreignObject></g></g><g class="edgeLabel"><g class="label" data-id="L_Dashboard_Handoff_0" transform="translate(0, 0)"><foreignObject width="0" height="0"><div xmlns="http://www.w3.org/1999/xhtml" class="labelBkg" style="display: table-cell; white-space: nowrap; line-height: 1.5; max-width: 200px; text-align: center;"><span class="edgeLabel"></span></div></foreignObject></g></g><g class="edgeLabel" transform="translate(243.375, 763.9357986450195)"><g class="label" data-id="L_Session_Handoff_0" transform="translate(-31.2421875, -12)"><foreignObject width="62.484375" height="24"><div xmlns="http://www.w3.org/1999/xhtml" class="labelBkg" style="display: table-cell; white-space: nowrap; line-height: 1.5; max-width: 200px; text-align: center;"><span class="edgeLabel"><p>consume</p></span></div></foreignObject></g></g><g class="edgeLabel"><g class="label" data-id="L_AllScreens_UrlState_0" transform="translate(0, 0)"><foreignObject width="0" height="0"><div xmlns="http://www.w3.org/1999/xhtml" class="labelBkg" style="display: table-cell; white-space: nowrap; line-height: 1.5; max-width: 200px; text-align: center;"><span class="edgeLabel"></span></div></foreignObject></g></g></g><g class="nodes"><g class="node default ok" id="my-svg-flowchart-SourcesStream-0" data-look="classic" transform="translate(425.7265625, 566.1880874633789)"><path d="M0,13.498476048076371 a73.3515625,13.498476048076371 0,0,0 146.703125,0 a73.3515625,13.498476048076371 0,0,0 -146.703125,0 l0,100.49847604807637 a73.3515625,13.498476048076371 0,0,0 146.703125,0 l0,-100.49847604807637" class="basic label-container outer-path" style="fill:#d1fae5 !important;stroke:#10b981 !important" transform="translate(-73.3515625, -63.747714072114555)"/><g class="label" style="" transform="translate(-65.8515625, -26)"><rect/><foreignObject width="131.703125" height="72"><div xmlns="http://www.w3.org/1999/xhtml" style="display: table-cell; white-space: nowrap; line-height: 1.5; max-width: 200px; text-align: center;"><span class="nodeLabel"><p>sources-stream<br />global file uploads<br />state machine</p></span></div></foreignObject></g></g><g class="node default ok" id="my-svg-flowchart-Library-1" data-look="classic" transform="translate(742.75, 601.1019020080566)"><path d="M0,13.058275614998804 a68.34375,13.058275614998804 0,0,0 136.6875,0 a68.34375,13.058275614998804 0,0,0 -136.6875,0 l0,76.0582756149988 a68.34375,13.058275614998804 0,0,0 136.6875,0 l0,-76.0582756149988" class="basic label-container outer-path" style="fill:#d1fae5 !important;stroke:#10b981 !important" transform="translate(-68.34375, -51.08741342249821)"/><g class="label" style="" transform="translate(-60.84375, -14)"><rect/><foreignObject width="121.6875" height="48"><div xmlns="http://www.w3.org/1999/xhtml" style="display: table-cell; white-space: nowrap; line-height: 1.5; max-width: 200px; text-align: center;"><span class="nodeLabel"><p>library<br />per-session ideas</p></span></div></foreignObject></g></g><g class="node default ok" id="my-svg-flowchart-Posts-2" data-look="classic" transform="translate(425.7265625, 212.9627456665039)"><path d="M0,13.2903981264637 a70.9375,13.2903981264637 0,0,0 141.875,0 a70.9375,13.2903981264637 0,0,0 -141.875,0 l0,76.2903981264637 a70.9375,13.2903981264637 0,0,0 141.875,0 l0,-76.2903981264637" class="basic label-container outer-path" style="fill:#d1fae5 !important;stroke:#10b981 !important" transform="translate(-70.9375, -51.43559718969555)"/><g class="label" style="" transform="translate(-63.4375, -14)"><rect/><foreignObject width="126.875" height="48"><div xmlns="http://www.w3.org/1999/xhtml" style="display: table-cell; white-space: nowrap; line-height: 1.5; max-width: 200px; text-align: center;"><span class="nodeLabel"><p>posts-store<br />per-session drafts</p></span></div></foreignObject></g></g><g class="node default ok" id="my-svg-flowchart-Assistant-3" data-look="classic" transform="translate(425.7265625, 59.763572692871094)"><path d="M0,13.509049123814995 a73.4765625,13.509049123814995 0,0,0 146.953125,0 a73.4765625,13.509049123814995 0,0,0 -146.953125,0 l0,76.50904912381499 a73.4765625,13.509049123814995 0,0,0 146.953125,0 l0,-76.50904912381499" class="basic label-container outer-path" style="fill:#d1fae5 !important;stroke:#10b981 !important" transform="translate(-73.4765625, -51.76357368572249)"/><g class="label" style="" transform="translate(-65.9765625, -14)"><rect/><foreignObject width="131.953125" height="48"><div xmlns="http://www.w3.org/1999/xhtml" style="display: table-cell; white-space: nowrap; line-height: 1.5; max-width: 200px; text-align: center;"><span class="nodeLabel"><p>assistant<br />per-session thread</p></span></div></foreignObject></g></g><g class="node default broken" id="my-svg-flowchart-Mocks-4" data-look="classic" transform="translate(425.7265625, 385.93382263183594)"><path d="M0,15.33769747330789 a99.2109375,15.33769747330789 0,0,0 198.421875,0 a99.2109375,15.33769747330789 0,0,0 -198.421875,0 l0,102.33769747330788 a99.2109375,15.33769747330789 0,0,0 198.421875,0 l0,-102.33769747330788" class="basic label-container outer-path" style="fill:#fee2e2 !important;stroke:#ef4444 !important" transform="translate(-99.2109375, -66.50654620996183)"/><g class="label" style="" transform="translate(-91.7109375, -26)"><rect/><foreignObject width="183.421875" height="72"><div xmlns="http://www.w3.org/1999/xhtml" style="display: table-cell; white-space: nowrap; line-height: 1.5; max-width: 200px; text-align: center;"><span class="nodeLabel"><p>mocks<br />seed + connectors + prefs<br />FRAGILE shared mutation</p></span></div></foreignObject></g></g><g class="node default ok" id="my-svg-flowchart-Handoff-5" data-look="classic" transform="translate(425.7265625, 819.5619430541992)"><path d="M0,12.195902688860436 a59.53125,12.195902688860436 0,0,0 119.0625,0 a59.53125,12.195902688860436 0,0,0 -119.0625,0 l0,75.19590268886043 a59.53125,12.195902688860436 0,0,0 119.0625,0 l0,-75.19590268886043" class="basic label-container outer-path" style="fill:#d1fae5 !important;stroke:#10b981 !important" transform="translate(-59.53125, -49.79385403329065)"/><g class="label" style="" transform="translate(-52.03125, -14)"><rect/><foreignObject width="104.0625" height="48"><div xmlns="http://www.w3.org/1999/xhtml" style="display: table-cell; white-space: nowrap; line-height: 1.5; max-width: 200px; text-align: center;"><span class="nodeLabel"><p>handoff<br />sessionStorage</p></span></div></foreignObject></g></g><g class="node default ok" id="my-svg-flowchart-UrlState-6" data-look="classic" transform="translate(425.7265625, 966.8496131896973)"><path d="M0,13.02251766678644 a67.953125,13.02251766678644 0,0,0 135.90625,0 a67.953125,13.02251766678644 0,0,0 -135.90625,0 l0,52.02251766678644 a67.953125,13.02251766678644 0,0,0 135.90625,0 l0,-52.02251766678644" class="basic label-container outer-path" style="fill:#d1fae5 !important;stroke:#10b981 !important" transform="translate(-67.953125, -39.03377650017966)"/><g class="label" style="" transform="translate(-60.453125, -2)"><rect/><foreignObject width="120.90625" height="24"><div xmlns="http://www.w3.org/1999/xhtml" style="display: table-cell; white-space: nowrap; line-height: 1.5; max-width: 200px; text-align: center;"><span class="nodeLabel"><p>URL hash params</p></span></div></foreignObject></g></g><g class="node default" id="my-svg-flowchart-AddSourceModal-7" data-look="classic" transform="translate(84.1171875, 376.3476371765137)"><g class="basic label-container outer-path" transform="translate(4.875,0)"><path d="M-80.9921875 -19.5 C-77.37475848174118 -12.26514196348236, -73.75732946348236 -5.030283926964723, -71.2421875 0 C-73.98961134047106 5.4948476809421285, -76.73703518094213 10.989695361884257, -80.9921875 19.5 C-26.182365605919728 19.5, 28.627456288160545 19.5, 71.2421875 19.5 C71.2421875 6.482631007488026, 71.2421875 -6.534737985023948, 71.2421875 -19.5 C29.63953064565736 -19.5, -11.963126208685281 -19.5, -80.9921875 -19.5" stroke="none" stroke-width="0" fill="#ECECFF" style=""/><path d="M-80.9921875 -19.5 C-78.9871516443849 -15.48992828876978, -76.98211578876978 -11.479856577539561, -71.2421875 0 M-80.9921875 -19.5 C-79.01396361987153 -15.543552239743068, -77.03573973974306 -11.587104479486138, -71.2421875 0 M-71.2421875 0 C-74.67416652320345 6.863958046406895, -78.10614554640689 13.72791609281379, -80.9921875 19.5 M-71.2421875 0 C-73.25790056625554 4.031426132511088, -75.27361363251109 8.062852265022176, -80.9921875 19.5 M-80.9921875 19.5 C-50.32733404926122 19.5, -19.662480598522436 19.5, 71.2421875 19.5 M-80.9921875 19.5 C-44.17404466110418 19.5, -7.3559018222083665 19.5, 71.2421875 19.5 M71.2421875 19.5 C71.2421875 8.41806370152992, 71.2421875 -2.663872596940159, 71.2421875 -19.5 M71.2421875 19.5 C71.2421875 7.65878461515975, 71.2421875 -4.182430769680501, 71.2421875 -19.5 M71.2421875 -19.5 C25.377388407562407 -19.5, -20.487410684875186 -19.5, -80.9921875 -19.5 M71.2421875 -19.5 C39.62470809013719 -19.5, 8.007228680274373 -19.5, -80.9921875 -19.5" stroke="#9370DB" stroke-width="1.3" fill="none" stroke-dasharray="0 0" style=""/></g><g class="label" style="" transform="translate(-58.8671875, -12)"><rect/><foreignObject width="127.484375" height="24"><div xmlns="http://www.w3.org/1999/xhtml" style="display: table-cell; white-space: nowrap; line-height: 1.5; max-width: 200px; text-align: center;"><span class="nodeLabel"><p>Add source modal</p></span></div></foreignObject></g></g><g class="node default" id="my-svg-flowchart-SettingsDrawer-11" data-look="classic" transform="translate(84.1171875, 490.93481063842773)"><g class="basic label-container outer-path" transform="translate(4.875,0)"><path d="M-73.3203125 -19.5 C-69.92850031242017 -12.716375624840326, -66.53668812484032 -5.932751249680653, -63.5703125 0 C-65.77236149254598 4.404097985091954, -67.97441048509195 8.808195970183908, -73.3203125 19.5 C-39.92626969424501 19.5, -6.532226888490015 19.5, 63.5703125 19.5 C63.5703125 7.399826336642656, 63.5703125 -4.700347326714688, 63.5703125 -19.5 C12.841555654515439 -19.5, -37.88720119096912 -19.5, -73.3203125 -19.5" stroke="none" stroke-width="0" fill="#ECECFF" style=""/><path d="M-73.3203125 -19.5 C-69.63045231672847 -12.12027963345692, -65.94059213345692 -4.740559266913841, -63.5703125 0 M-73.3203125 -19.5 C-69.5277065956931 -11.914788191386215, -65.73510069138621 -4.329576382772428, -63.5703125 0 M-63.5703125 0 C-67.11714867799363 7.093672355987249, -70.66398485598725 14.187344711974498, -73.3203125 19.5 M-63.5703125 0 C-67.03963895970634 6.9386529194126885, -70.50896541941269 13.877305838825377, -73.3203125 19.5 M-73.3203125 19.5 C-22.343403900834197 19.5, 28.633504698331606 19.5, 63.5703125 19.5 M-73.3203125 19.5 C-37.664849052398566 19.5, -2.0093856047971315 19.5, 63.5703125 19.5 M63.5703125 19.5 C63.5703125 9.06679777816387, 63.5703125 -1.366404443672259, 63.5703125 -19.5 M63.5703125 19.5 C63.5703125 7.627487444777328, 63.5703125 -4.245025110445344, 63.5703125 -19.5 M63.5703125 -19.5 C18.573281439949568 -19.5, -26.423749620100864 -19.5, -73.3203125 -19.5 M63.5703125 -19.5 C23.853824250752247 -19.5, -15.862663998495506 -19.5, -73.3203125 -19.5" stroke="#9370DB" stroke-width="1.3" fill="none" stroke-dasharray="0 0" style=""/></g><g class="label" style="" transform="translate(-51.1953125, -12)"><rect/><foreignObject width="112.140625" height="24"><div xmlns="http://www.w3.org/1999/xhtml" style="display: table-cell; white-space: nowrap; line-height: 1.5; max-width: 200px; text-align: center;"><span class="nodeLabel"><p>Settings drawer</p></span></div></foreignObject></g></g><g class="node default" id="my-svg-flowchart-SessionComposer-15" data-look="classic" transform="translate(84.1171875, 674.9357986450195)"><g class="basic label-container outer-path" transform="translate(4.875,0)"><path d="M-69.234375 -19.5 C-65.54154842764673 -12.114346855293475, -61.848721855293476 -4.728693710586949, -59.484375 0 C-63.26534203762858 7.561934075257162, -67.04630907525716 15.123868150514324, -69.234375 19.5 C-22.04958715777544 19.5, 25.135200684449117 19.5, 59.484375 19.5 C59.484375 10.47984175126955, 59.484375 1.4596835025391002, 59.484375 -19.5 C21.164162533393487 -19.5, -17.156049933213026 -19.5, -69.234375 -19.5" stroke="none" stroke-width="0" fill="#ECECFF" style=""/><path d="M-69.234375 -19.5 C-65.48349754904821 -11.99824509809642, -61.73262009809642 -4.496490196192841, -59.484375 0 M-69.234375 -19.5 C-66.0236138450188 -13.078477690037609, -62.81285269003761 -6.656955380075219, -59.484375 0 M-59.484375 0 C-61.896170888147324 4.823591776294644, -64.30796677629465 9.647183552589288, -69.234375 19.5 M-59.484375 0 C-62.1784165897958 5.388083179591598, -64.8724581795916 10.776166359183197, -69.234375 19.5 M-69.234375 19.5 C-22.145801552234026 19.5, 24.942771895531948 19.5, 59.484375 19.5 M-69.234375 19.5 C-27.349383168753427 19.5, 14.535608662493146 19.5, 59.484375 19.5 M59.484375 19.5 C59.484375 8.40277797728223, 59.484375 -2.6944440454355387, 59.484375 -19.5 M59.484375 19.5 C59.484375 10.432448535519987, 59.484375 1.364897071039973, 59.484375 -19.5 M59.484375 -19.5 C8.32648716215104 -19.5, -42.83140067569792 -19.5, -69.234375 -19.5 M59.484375 -19.5 C20.525889847302537 -19.5, -18.432595305394926 -19.5, -69.234375 -19.5" stroke="#9370DB" stroke-width="1.3" fill="none" stroke-dasharray="0 0" style=""/></g><g class="label" style="" transform="translate(-47.109375, -12)"><rect/><foreignObject width="103.96875" height="24"><div xmlns="http://www.w3.org/1999/xhtml" style="display: table-cell; white-space: nowrap; line-height: 1.5; max-width: 200px; text-align: center;"><span class="nodeLabel"><p>Session +menu</p></span></div></foreignObject></g></g><g class="node default" id="my-svg-flowchart-DraftFlow-21" data-look="classic" transform="translate(84.1171875, 111.76593780517578)"><g class="basic label-container outer-path" transform="translate(4.875,0)"><path d="M-53.5703125 -19.5 C-51.08963973546421 -14.538654470928417, -48.608966970928414 -9.577308941856833, -43.8203125 0 C-46.54922101539922 5.457817030798434, -49.27812953079844 10.915634061596869, -53.5703125 19.5 C-16.072107973634367 19.5, 21.426096552731266 19.5, 43.8203125 19.5 C43.8203125 5.587944199702644, 43.8203125 -8.324111600594712, 43.8203125 -19.5 C7.199034294159119 -19.5, -29.42224391168176 -19.5, -53.5703125 -19.5" stroke="none" stroke-width="0" fill="#ECECFF" style=""/><path d="M-53.5703125 -19.5 C-49.766661762675625 -11.89269852535125, -45.96301102535125 -4.2853970507025, -43.8203125 0 M-53.5703125 -19.5 C-51.21091495789521 -14.781204915790422, -48.851517415790426 -10.062409831580846, -43.8203125 0 M-43.8203125 0 C-47.027635008468565 6.414645016937132, -50.23495751693713 12.829290033874264, -53.5703125 19.5 M-43.8203125 0 C-45.81952344354882 3.998421887097635, -47.818734387097635 7.99684377419527, -53.5703125 19.5 M-53.5703125 19.5 C-18.262255510146986 19.5, 17.04580147970603 19.5, 43.8203125 19.5 M-53.5703125 19.5 C-24.60877852920399 19.5, 4.3527554415920235 19.5, 43.8203125 19.5 M43.8203125 19.5 C43.8203125 10.320080672254486, 43.8203125 1.1401613445089716, 43.8203125 -19.5 M43.8203125 19.5 C43.8203125 4.884009295150186, 43.8203125 -9.731981409699628, 43.8203125 -19.5 M43.8203125 -19.5 C10.188647256814896 -19.5, -23.443017986370208 -19.5, -53.5703125 -19.5 M43.8203125 -19.5 C23.685680077881756 -19.5, 3.5510476557635116 -19.5, -53.5703125 -19.5" stroke="#9370DB" stroke-width="1.3" fill="none" stroke-dasharray="0 0" style=""/></g><g class="label" style="" transform="translate(-31.4453125, -12)"><rect/><foreignObject width="72.640625" height="24"><div xmlns="http://www.w3.org/1999/xhtml" style="display: table-cell; white-space: nowrap; line-height: 1.5; max-width: 200px; text-align: center;"><span class="nodeLabel"><p>Draft flow</p></span></div></foreignObject></g></g><g class="node default" id="my-svg-flowchart-Dashboard-25" data-look="classic" transform="translate(84.1171875, 852.9357986450195)"><g class="basic label-container outer-path" transform="translate(4.875,0)"><path d="M-54.4921875 -19.5 C-52.33074350993222 -15.177112019864438, -50.16929951986444 -10.854224039728877, -44.7421875 0 C-47.508483386639895 5.532591773279791, -50.27477927327979 11.065183546559583, -54.4921875 19.5 C-15.512425903189872 19.5, 23.467335693620257 19.5, 44.7421875 19.5 C44.7421875 5.5977592107048615, 44.7421875 -8.304481578590277, 44.7421875 -19.5 C12.191603132462461 -19.5, -20.358981235075078 -19.5, -54.4921875 -19.5" stroke="none" stroke-width="0" fill="#ECECFF" style=""/><path d="M-54.4921875 -19.5 C-51.20746086352765 -12.930546727055297, -47.9227342270553 -6.361093454110595, -44.7421875 0 M-54.4921875 -19.5 C-51.88358175654811 -14.282788513096223, -49.27497601309622 -9.065577026192447, -44.7421875 0 M-44.7421875 0 C-47.65802249665406 5.831669993308131, -50.57385749330813 11.663339986616261, -54.4921875 19.5 M-44.7421875 0 C-47.9899766734723 6.495578346944594, -51.2377658469446 12.991156693889188, -54.4921875 19.5 M-54.4921875 19.5 C-20.518223085508744 19.5, 13.455741328982512 19.5, 44.7421875 19.5 M-54.4921875 19.5 C-32.6715636877154 19.5, -10.850939875430797 19.5, 44.7421875 19.5 M44.7421875 19.5 C44.7421875 5.377630199664001, 44.7421875 -8.744739600671998, 44.7421875 -19.5 M44.7421875 19.5 C44.7421875 9.407953845235486, 44.7421875 -0.6840923095290279, 44.7421875 -19.5 M44.7421875 -19.5 C14.431205644025606 -19.5, -15.879776211948787 -19.5, -54.4921875 -19.5 M44.7421875 -19.5 C21.96938022465994 -19.5, -0.8034270506801207 -19.5, -54.4921875 -19.5" stroke="#9370DB" stroke-width="1.3" fill="none" stroke-dasharray="0 0" style=""/></g><g class="label" style="" transform="translate(-32.3671875, -12)"><rect/><foreignObject width="74.484375" height="24"><div xmlns="http://www.w3.org/1999/xhtml" style="display: table-cell; white-space: nowrap; line-height: 1.5; max-width: 200px; text-align: center;"><span class="nodeLabel"><p>Dashboard</p></span></div></foreignObject></g></g><g class="node default" id="my-svg-flowchart-Session-27" data-look="classic" transform="translate(84.1171875, 763.9357986450195)"><g class="basic label-container outer-path" transform="translate(4.875,0)"><path d="M-68.703125 -19.5 C-66.71689877849447 -15.527547556988932, -64.73067255698894 -11.555095113977865, -58.953125 0 C-61.7441187605257 5.581987521051407, -64.5351125210514 11.163975042102814, -68.703125 19.5 C-37.48756278428358 19.5, -6.272000568567158 19.5, 58.953125 19.5 C58.953125 6.963388279938242, 58.953125 -5.573223440123517, 58.953125 -19.5 C14.215820826154243 -19.5, -30.521483347691515 -19.5, -68.703125 -19.5" stroke="none" stroke-width="0" fill="#ECECFF" style=""/><path d="M-68.703125 -19.5 C-66.74554693665728 -15.584843873314544, -64.78796887331454 -11.669687746629085, -58.953125 0 M-68.703125 -19.5 C-65.3390337256248 -12.771817451249614, -61.97494245124961 -6.043634902499226, -58.953125 0 M-58.953125 0 C-61.945593698910386 5.984937397820774, -64.93806239782077 11.969874795641548, -68.703125 19.5 M-58.953125 0 C-61.00270017311729 4.099150346234583, -63.05227534623458 8.198300692469166, -68.703125 19.5 M-68.703125 19.5 C-27.353801604954484 19.5, 13.995521790091033 19.5, 58.953125 19.5 M-68.703125 19.5 C-21.091069111905576 19.5, 26.52098677618885 19.5, 58.953125 19.5 M58.953125 19.5 C58.953125 7.344633302165928, 58.953125 -4.810733395668144, 58.953125 -19.5 M58.953125 19.5 C58.953125 8.554228692669351, 58.953125 -2.3915426146612973, 58.953125 -19.5 M58.953125 -19.5 C27.096716259290794 -19.5, -4.759692481418412 -19.5, -68.703125 -19.5 M58.953125 -19.5 C30.2067930209342 -19.5, 1.460461041868399 -19.5, -68.703125 -19.5" stroke="#9370DB" stroke-width="1.3" fill="none" stroke-dasharray="0 0" style=""/></g><g class="label" style="" transform="translate(-46.578125, -12)"><rect/><foreignObject width="102.90625" height="24"><div xmlns="http://www.w3.org/1999/xhtml" style="display: table-cell; white-space: nowrap; line-height: 1.5; max-width: 200px; text-align: center;"><span class="nodeLabel"><p>Session screen</p></span></div></foreignObject></g></g><g class="node default" id="my-svg-flowchart-AllScreens-29" data-look="classic" transform="translate(84.1171875, 966.8496131896973)"><g class="basic label-container outer-path" transform="translate(4.875,0)"><path d="M-55.7421875 -19.5 C-53.3553313440143 -14.726287688028613, -50.96847518802861 -9.952575376057224, -45.9921875 0 C-48.11815136139016 4.2519277227803185, -50.244115222780316 8.503855445560637, -55.7421875 19.5 C-34.09008817806264 19.5, -12.437988856125287 19.5, 45.9921875 19.5 C45.9921875 8.884177303143522, 45.9921875 -1.731645393712956, 45.9921875 -19.5 C11.696382152277124 -19.5, -22.599423195445752 -19.5, -55.7421875 -19.5" stroke="none" stroke-width="0" fill="#ECECFF" style=""/><path d="M-55.7421875 -19.5 C-52.378512328033175 -12.772649656066342, -49.01483715606634 -6.045299312132686, -45.9921875 0 M-55.7421875 -19.5 C-51.947437467052076 -11.910499934104147, -48.152687434104145 -4.320999868208293, -45.9921875 0 M-45.9921875 0 C-48.77259934577892 5.560823691557847, -51.55301119155784 11.121647383115693, -55.7421875 19.5 M-45.9921875 0 C-49.48169097008321 6.979006940166421, -52.97119444016642 13.958013880332842, -55.7421875 19.5 M-55.7421875 19.5 C-25.825598323452073 19.5, 4.090990853095853 19.5, 45.9921875 19.5 M-55.7421875 19.5 C-30.684657275792002 19.5, -5.627127051584004 19.5, 45.9921875 19.5 M45.9921875 19.5 C45.9921875 5.0720464606234525, 45.9921875 -9.355907078753095, 45.9921875 -19.5 M45.9921875 19.5 C45.9921875 9.86643456075309, 45.9921875 0.23286912150618022, 45.9921875 -19.5 M45.9921875 -19.5 C22.462964348551054 -19.5, -1.0662588028978917 -19.5, -55.7421875 -19.5 M45.9921875 -19.5 C12.504416676392395 -19.5, -20.98335414721521 -19.5, -55.7421875 -19.5" stroke="#9370DB" stroke-width="1.3" fill="none" stroke-dasharray="0 0" style=""/></g><g class="label" style="" transform="translate(-33.6171875, -12)"><rect/><foreignObject width="76.984375" height="24"><div xmlns="http://www.w3.org/1999/xhtml" style="display: table-cell; white-space: nowrap; line-height: 1.5; max-width: 200px; text-align: center;"><span class="nodeLabel"><p>All screens</p></span></div></foreignObject></g></g></g></g></g><defs><filter id="my-svg-drop-shadow" height="130%" width="130%"><feDropShadow dx="4" dy="4" stdDeviation="0" flood-opacity="0.06" flood-color="#000000"/></filter></defs><defs><filter id="my-svg-drop-shadow-small" height="150%" width="150%"><feDropShadow dx="2" dy="2" stdDeviation="0" flood-opacity="0.06" flood-color="#000000"/></filter></defs></svg>